<svg xmlns="http://www.w3.org/2000/svg" viewBox="0 0 565.43 145.44">
    <defs>
        <style>.cls-1{fill:#ffffff;}.cls-2{fill:#a21d21;}</style>
    </defs>
    <g id="Layer_2" data-name="Layer 2">
        <g id="Layer_1-2" data-name="Layer 1">
            <path class="cls-1" d="M38.2,99C22.46,93.49,4.74,84.93,4.74,65.07c0-15.13,13.44-30.25,35-30.25,22.31,0,34.84,17,34.84,17L61.88,64.31S53,52.24,39.72,52.24c-9.16,0-16.34,5.65-16.34,12.83,0,9.32,8.4,12.22,23.07,17.72,16.34,6.12,29.94,13.45,29.94,32.85s-17.11,29.8-37.28,29.8C12.38,145.44,0,123.59,0,123.59L13.75,112s9.17,16,25.36,16c9.17,0,18.64-3.67,18.64-12.38C57.75,106.63,50.88,103.42,38.2,99Z"/>
            <path class="cls-1" d="M113.52,105.1v38.5H95.18V36.65h36.37c21.23,0,35.44,14.67,35.44,34.23s-14.21,34.22-35.44,34.22h-9.63V87.68h7.33c12.53,0,19.1-6.72,19.1-16.8s-6.57-16.81-19.1-16.81H113.52v51Z"/>
            <path class="cls-1" d="M230.86,101.43,214.81,59.72l-16,41.71-6.57,16.81-9.78,25.36H163.94L205.49,36.65h18.64l41.56,107H247.21l-9.78-25.36Z"/>
            <path class="cls-1" d="M385.32,84.63l38.2-48h22.91L404.57,89.21l47.06,54.39H427.34l-42-48.28V143.6H367V36.65h18.33Z"/>
            <path class="cls-1" d="M304.65,85.85h6.11c11.77,0,19.1-5.35,19.1-15.89s-7.33-15.89-19.1-15.89H296.25V143.6H277.91V36.65h35.14c21.24,0,35.45,13.75,35.45,33.31,0,16-8.55,28.27-23.83,32.08L351.4,143.6H330l-25.36-40.33Z"/>
            <path class="cls-2" d="M531.09,40.86l-20.56,2.79A18.57,18.57,0,0,0,495,57.79L490.23,78l-2.8-20.56a18.54,18.54,0,0,0-14.14-15.56L453.1,37.13l20.55-2.8a18.54,18.54,0,0,0,15.57-14.14L494,0l2.79,20.56a18.57,18.57,0,0,0,14.14,15.56Z"/>
            <path class="cls-2" d="M493.16,16.59l.6,4.37a21.69,21.69,0,0,0,16.44,18.1l4.29,1-4.37.59A21.69,21.69,0,0,0,492,57.1l-1,4.29L490.43,57A21.71,21.71,0,0,0,474,38.93l-4.29-1,4.37-.59a21.7,21.7,0,0,0,18.1-16.44l1-4.3M494,0l-4.74,20.19a18.54,18.54,0,0,1-15.57,14.14l-20.55,2.8,20.19,4.74a18.54,18.54,0,0,1,14.14,15.56L490.23,78,495,57.79a18.57,18.57,0,0,1,15.56-14.14l20.56-2.79-20.2-4.74a18.57,18.57,0,0,1-14.14-15.56L494,0Z"/>
            <path class="cls-2" d="M541.25,89,540,93.18a21.7,21.7,0,0,0,7.29,23.34l3.47,2.72-4.21-1.3a21.59,21.59,0,0,0-23.34,7.29l-2.72,3.47,1.3-4.21a21.7,21.7,0,0,0-7.29-23.34L511,98.43l4.21,1.3a21.52,21.52,0,0,0,23.34-7.29L541.25,89M549,74.26,536.15,90.58a18.53,18.53,0,0,1-14.59,7.09,18.81,18.81,0,0,1-5.48-.82l-19.82-6.13,16.32,12.81a18.54,18.54,0,0,1,6.27,20.07l-6.12,19.82,12.81-16.32a18.53,18.53,0,0,1,20.07-6.27L565.43,127l-16.32-12.81a18.55,18.55,0,0,1-6.28-20.06L549,74.26Z"/>
        </g>
    </g>
</svg>
